<?xml version="1.0" encoding="UTF-8" standalone="no"?>
<svg width="235px" height="108px" viewBox="0 0 235 108" version="1.1" xmlns="http://www.w3.org/2000/svg" xmlns:xlink="http://www.w3.org/1999/xlink">
    <!-- Generator: Sketch 3.8.3 (29802) - http://www.bohemiancoding.com/sketch -->
    <title>ic_404@1x</title>
    <desc>Created with Sketch.</desc>
    <defs></defs>
    <g id="404-page" stroke="none" stroke-width="1" fill="none" fill-rule="evenodd">
        <g id="404_mob" transform="translate(-40.000000, -258.000000)">
            <g id="Group" transform="translate(39.000000, 170.000000)">
                <g id="ic_404" transform="translate(1.000000, 89.000000)">
                    <path d="M74.3046875,81.0625 L62.7734375,81.0625 L62.7734375,103 L43.15625,103 L43.15625,81.0625 L2.796875,81.0625 L2.796875,63.5546875 L40.2734375,1.6796875 L62.7734375,1.6796875 L62.7734375,65.3828125 L74.3046875,65.3828125 L74.3046875,81.0625 Z M43.15625,65.3828125 L43.15625,21.3671875 L17.6328125,65.3828125 L43.15625,65.3828125 Z M106.929688,79.9023438 C108.851572,86.1133123 112.789033,89.21875 118.742188,89.21875 C124.695342,89.21875 128.597647,86.1133123 130.449219,79.9023438 C132.300791,73.6913752 133.226562,64.7266211 133.226562,53.0078125 C133.226562,40.7265011 132.300791,31.632842 130.449219,25.7265625 C128.597647,19.820283 124.695342,16.8671875 118.742188,16.8671875 C112.789033,16.8671875 108.851572,19.820283 106.929688,25.7265625 C105.007803,31.632842 104.046875,40.7265011 104.046875,53.0078125 C104.046875,64.7266211 105.007803,73.6913752 106.929688,79.9023438 L106.929688,79.9023438 Z M146.058594,14.0546875 C151.285182,23.1953582 153.898438,36.1796034 153.898438,53.0078125 C153.898438,69.8360216 151.285182,82.7968295 146.058594,91.890625 C140.832005,100.98442 131.726627,105.53125 118.742188,105.53125 C105.757748,105.53125 96.6523699,100.98442 91.4257812,91.890625 C86.1991926,82.7968295 83.5859375,69.8360216 83.5859375,53.0078125 C83.5859375,36.1796034 86.1991926,23.1953582 91.4257812,14.0546875 C96.6523699,4.9140168 105.757748,0.34375 118.742188,0.34375 C131.726627,0.34375 140.832005,4.9140168 146.058594,14.0546875 L146.058594,14.0546875 Z M234.476562,81.0625 L222.945312,81.0625 L222.945312,103 L203.328125,103 L203.328125,81.0625 L162.96875,81.0625 L162.96875,63.5546875 L200.445312,1.6796875 L222.945312,1.6796875 L222.945312,65.3828125 L234.476562,65.3828125 L234.476562,81.0625 Z M203.328125,65.3828125 L203.328125,21.3671875 L177.804688,65.3828125 L203.328125,65.3828125 Z" id="404-copy" fill="#FFC107"></path>
                    <path d="M72.3046875,81.0625 L60.7734375,81.0625 L60.7734375,103 L41.15625,103 L41.15625,81.0625 L0.796875,81.0625 L0.796875,63.5546875 L38.2734375,1.6796875 L60.7734375,1.6796875 L60.7734375,65.3828125 L72.3046875,65.3828125 L72.3046875,81.0625 Z M41.15625,65.3828125 L41.15625,21.3671875 L15.6328125,65.3828125 L41.15625,65.3828125 Z M104.929688,79.9023438 C106.851572,86.1133123 110.789033,89.21875 116.742188,89.21875 C122.695342,89.21875 126.597647,86.1133123 128.449219,79.9023438 C130.300791,73.6913752 131.226562,64.7266211 131.226562,53.0078125 C131.226562,40.7265011 130.300791,31.632842 128.449219,25.7265625 C126.597647,19.820283 122.695342,16.8671875 116.742188,16.8671875 C110.789033,16.8671875 106.851572,19.820283 104.929688,25.7265625 C103.007803,31.632842 102.046875,40.7265011 102.046875,53.0078125 C102.046875,64.7266211 103.007803,73.6913752 104.929688,79.9023438 L104.929688,79.9023438 Z M144.058594,14.0546875 C149.285182,23.1953582 151.898438,36.1796034 151.898438,53.0078125 C151.898438,69.8360216 149.285182,82.7968295 144.058594,91.890625 C138.832005,100.98442 129.726627,105.53125 116.742188,105.53125 C103.757748,105.53125 94.6523699,100.98442 89.4257812,91.890625 C84.1991926,82.7968295 81.5859375,69.8360216 81.5859375,53.0078125 C81.5859375,36.1796034 84.1991926,23.1953582 89.4257812,14.0546875 C94.6523699,4.9140168 103.757748,0.34375 116.742188,0.34375 C129.726627,0.34375 138.832005,4.9140168 144.058594,14.0546875 L144.058594,14.0546875 Z M232.476562,81.0625 L220.945312,81.0625 L220.945312,103 L201.328125,103 L201.328125,81.0625 L160.96875,81.0625 L160.96875,63.5546875 L198.445312,1.6796875 L220.945312,1.6796875 L220.945312,65.3828125 L232.476562,65.3828125 L232.476562,81.0625 Z M201.328125,65.3828125 L201.328125,21.3671875 L175.804688,65.3828125 L201.328125,65.3828125 Z" id="404" stroke="#4A4A4A"></path>
                </g>
            </g>
        </g>
    </g>
</svg>